<svg id="Layer_1" data-name="Layer 1" xmlns="http://www.w3.org/2000/svg" viewBox="0 0 425.2 186.54"><defs><style>.cls-1{fill:#fbbe12;}.cls-1,.cls-2{stroke:#1d1d1b;stroke-miterlimit:10;}.cls-2{fill:#e62f1f;}</style></defs><path class="cls-1" d="M577,283.52a92.82,92.82,0,0,1-92.86,92.77H245.65a92.77,92.77,0,1,1,0-185.54H484.13A92.82,92.82,0,0,1,577,283.52Z" transform="translate(-152.29 -190.25)"/><path class="cls-2" d="M364.89,201.35V365.69H245.74a82.21,82.21,0,0,1-82.24-82.17h0a82.21,82.21,0,0,1,82.24-82.17Z" transform="translate(-152.29 -190.25)"/><path class="cls-2" d="M536.23,233.19V333.85a14.32,14.32,0,1,1-28.63,0V275.79L473.9,320l-.76,1a14.12,14.12,0,0,1-10.48,5.61l-.38,0h-.75l-.38,0c-.28,0-.55,0-.82-.07l-.66-.09h0a14,14,0,0,1-6.6-2.94A14.5,14.5,0,0,1,449.9,320l-33.7-44.18v58.06a14.32,14.32,0,1,1-28.62,0V233.19c0-.17,0-.34,0-.51a14.8,14.8,0,0,1,5.47-11.07,14.08,14.08,0,0,1,20.1,2.51l.55.72.05.06L461.91,288,510,224.91h0l.6-.78a14.07,14.07,0,0,1,20.09-2.51,14.81,14.81,0,0,1,5.48,11.07C536.23,232.85,536.23,233,536.23,233.19Z" transform="translate(-152.29 -190.25)"/><path class="cls-1" d="M335.88,346.94a13.6,13.6,0,0,1-17.94-6.43l-37.16-78.46-37.33,78.82a13.6,13.6,0,0,1-17.94,6.43A13.2,13.2,0,0,1,219,329.64l48.83-103.11a13.4,13.4,0,0,1,9.15-7.32,13.59,13.59,0,0,1,16.63,6.95l48.82,103.11A13.21,13.21,0,0,1,335.88,346.94Z" transform="translate(-152.29 -190.25)"/></svg>